{"title":"Jeddo Habibi 2012 Arabic DVDRip X264 ACC - alrmothe","uid":8260351,"size":2397536379,"categoryP":"video","categoryS":"movies","magnet":"?xt=urn:btih:7a3084a84a2bba1d07a9f6c029640cb5a60fee84&amp;dn=Jeddo+Habibi+2012+Arabic+DVDRip+X264+ACC+-+alrmothe&amp;tr=udp%3A%2F%2Ftracker.openbittorrent.com%3A80&amp;tr=udp%3A%2F%2Fopen.demonii.com%3A1337&amp;tr=udp%3A%2F%2Ftracker.coppersurfer.tk%3A6969&amp;tr=udp%3A%2F%2Fexodus.desync.com%3A6969","seeders":0,"leechers":1,"uploader":".alrmothe","files":22,"time":1363370164,"description":"*********************************************************************\n \nJeddo Habibi 2012 Arabic DVDRip X264 ACC - alrmothe\n\n*********************************************************************\n\nTiTLE: Jeddo Habibi\nYEAR:2012\nGENRE : Drama | Romance | Comedy\nelcinema URL : http://www.elcinema.com/work/wk1411403/\nSIZE : 2.23 GB\nFormat : mp4 \nOverall bit rate:2851 Kbps\nSub: No \nEncoded / Released By:alrmothe\n*********************************************************************\n\nVideo\nFormat : AVC\nFormat/Info : Advanced Video Codec\nFormat profile : &lt;a class=&quot;__cf_email__&quot; href=&quot;/cdn-cgi/l/email-protection&quot; data-cfemail=&quot;f5bd9c929db5b9c6dbc5&quot;&gt;[email&amp;#160;protected]&lt;/a&gt;&lt;script cf-hash='f9e31' type=&quot;text/javascript&quot;&gt;\n/* &lt;![CDATA[ */!function(){try{var t=&quot;currentScript&quot;in document?document.currentScript:function(){for(var t=document.getElementsByTagName(&quot;script&quot;),e=t.length;e--;)if(t[e].getAttribute(&quot;cf-hash&quot;))return t[e]}();if(t&amp;&amp;t.previousSibling){var e,r,n,i,c=t.previousSibling,a=c.getAttribute(&quot;data-cfemail&quot;);if(a){for(e=&quot;&quot;,r=parseInt(a.substr(0,2),16),n=2;a.length-n;n+=2)i=parseInt(a.substr(n,2),16)^r,e+=String.fromCharCode(i);e=document.createTextNode(e),c.parentNode.replaceChild(e,c)}}}catch(u){}}();/* ]]&gt; */&lt;/script&gt;\nRuntime: 1h 51min 55sec\nbit rate: 2675 Kbps\nWidth: 720 pixels\nHeight: 576 pixels\nFrame rate: 25 fps\nBit depth : 8 bits\nBits/(Pixel*Frame) : 0.258\nStream size : 2.06 GiB (94%)\n\nAudio: Arabic\nFormat: ACC\nBit rate: 172 Kbps\nSampling rate: 48.0 KHz\nChannel(s): 2 channels\nStream size : 137 MiB (8%)\nLanguage : Arabic\n\n*********************************************************************\n\nScreenshots\n &lt;a href=&quot;\nhttp://img202.imageshack.us/img202/1796/vlcsnap2013031519h01m51.png&quot; rel=&quot;nofollow&quot; target=&quot;_NEW&quot;&gt;\nhttp://img202.imageshack.us/img202/1796/vlcsnap2013031519h01m51.png&lt;/a&gt; &lt;a href=&quot;\nhttp://img854.imageshack.us/img854/9733/vlcsnap2013031518h59m31.png&quot; rel=&quot;nofollow&quot; target=&quot;_NEW&quot;&gt;\nhttp://img854.imageshack.us/img854/9733/vlcsnap2013031518h59m31.png&lt;/a&gt; &lt;a href=&quot;\nhttp://img22.imageshack.us/img22/7990/jeddohabibi.png&quot; rel=&quot;nofollow&quot; target=&quot;_NEW&quot;&gt;\nhttp://img22.imageshack.us/img22/7990/jeddohabibi.png&lt;/a&gt;","torrent":{"xt":"urn:btih:7a3084a84a2bba1d07a9f6c029640cb5a60fee84","amp;dn":"Jeddo+Habibi+2012+Arabic+DVDRip+X264+ACC+-+alrmothe","amp;tr":["udp%3A%2F%2Ftracker.openbittorrent.com%3A80","udp%3A%2F%2Fopen.demonii.com%3A1337","udp%3A%2F%2Ftracker.coppersurfer.tk%3A6969","udp%3A%2F%2Fexodus.desync.com%3A6969"],"infoHash":"7a3084a84a2bba1d07a9f6c029640cb5a60fee84","infoHashBuffer":{"type":"Buffer","data":[122,48,132,168,74,43,186,29,7,169,246,192,41,100,12,181,166,15,238,132]},"announce":[],"urlList":[]}}